<mxfile host="app.diagrams.net" modified="2024-04-19T12:56:09.418Z" agent="Mozilla/5.0 (Windows NT 10.0; Win64; x64) AppleWebKit/537.36 (KHTML, like Gecko) Chrome/123.0.0.0 Safari/537.36" etag="-Ap_AGNz4nO6fiQrgJgV" version="24.2.3" type="github">
  <diagram name="第 1 页" id="zRJxZVvC8xchga48HSo5">
    <mxGraphModel dx="1434" dy="746" grid="1" gridSize="10" guides="1" tooltips="1" connect="1" arrows="1" fold="1" page="1" pageScale="1" pageWidth="827" pageHeight="1169" math="0" shadow="0">
      <root>
        <mxCell id="0" />
        <mxCell id="1" parent="0" />
        <mxCell id="xd1aFESA6wnlgl69De3i-8" style="edgeStyle=orthogonalEdgeStyle;rounded=0;orthogonalLoop=1;jettySize=auto;html=1;exitX=0.5;exitY=0;exitDx=0;exitDy=0;exitPerimeter=0;entryX=0;entryY=0.5;entryDx=0;entryDy=0;strokeColor=default;strokeWidth=2;" parent="1" source="xd1aFESA6wnlgl69De3i-1" target="xd1aFESA6wnlgl69De3i-4" edge="1">
          <mxGeometry relative="1" as="geometry" />
        </mxCell>
        <mxCell id="xd1aFESA6wnlgl69De3i-9" style="edgeStyle=orthogonalEdgeStyle;rounded=0;orthogonalLoop=1;jettySize=auto;html=1;entryX=0;entryY=0.5;entryDx=0;entryDy=0;strokeColor=default;strokeWidth=2;" parent="1" source="xd1aFESA6wnlgl69De3i-1" target="xd1aFESA6wnlgl69De3i-5" edge="1">
          <mxGeometry relative="1" as="geometry" />
        </mxCell>
        <mxCell id="xd1aFESA6wnlgl69De3i-10" style="edgeStyle=orthogonalEdgeStyle;rounded=0;orthogonalLoop=1;jettySize=auto;html=1;entryX=0;entryY=0.5;entryDx=0;entryDy=0;strokeColor=default;strokeWidth=2;" parent="1" source="xd1aFESA6wnlgl69De3i-1" target="xd1aFESA6wnlgl69De3i-6" edge="1">
          <mxGeometry relative="1" as="geometry">
            <Array as="points">
              <mxPoint x="75" y="570" />
            </Array>
          </mxGeometry>
        </mxCell>
        <mxCell id="xd1aFESA6wnlgl69De3i-1" value="用户" style="shape=umlActor;verticalLabelPosition=bottom;verticalAlign=top;html=1;outlineConnect=0;strokeColor=default;strokeWidth=2;" parent="1" vertex="1">
          <mxGeometry x="60" y="330" width="30" height="60" as="geometry" />
        </mxCell>
        <mxCell id="xd1aFESA6wnlgl69De3i-4" value="按标签查看列表" style="ellipse;whiteSpace=wrap;html=1;strokeColor=default;strokeWidth=2;" parent="1" vertex="1">
          <mxGeometry x="150" y="120" width="120" height="40" as="geometry" />
        </mxCell>
        <mxCell id="xd1aFESA6wnlgl69De3i-5" value="按分类查看列表" style="ellipse;whiteSpace=wrap;html=1;strokeColor=default;strokeWidth=2;" parent="1" vertex="1">
          <mxGeometry x="150" y="340" width="120" height="40" as="geometry" />
        </mxCell>
        <mxCell id="xd1aFESA6wnlgl69De3i-6" value="查看博客详情" style="ellipse;whiteSpace=wrap;html=1;strokeColor=default;strokeWidth=2;" parent="1" vertex="1">
          <mxGeometry x="150" y="550" width="120" height="40" as="geometry" />
        </mxCell>
        <mxCell id="xd1aFESA6wnlgl69De3i-11" value="查看博客标签" style="ellipse;whiteSpace=wrap;html=1;strokeColor=default;strokeWidth=2;" parent="1" vertex="1">
          <mxGeometry x="360" y="535" width="120" height="40" as="geometry" />
        </mxCell>
        <mxCell id="xd1aFESA6wnlgl69De3i-12" value="查看博客分类" style="ellipse;whiteSpace=wrap;html=1;strokeColor=default;strokeWidth=2;" parent="1" vertex="1">
          <mxGeometry x="360" y="470" width="120" height="40" as="geometry" />
        </mxCell>
        <mxCell id="xd1aFESA6wnlgl69De3i-14" value="点赞" style="ellipse;whiteSpace=wrap;html=1;strokeColor=default;strokeWidth=2;" parent="1" vertex="1">
          <mxGeometry x="354" y="610" width="120" height="40" as="geometry" />
        </mxCell>
        <mxCell id="xd1aFESA6wnlgl69De3i-16" value="增加浏览量" style="ellipse;whiteSpace=wrap;html=1;strokeColor=default;strokeWidth=2;" parent="1" vertex="1">
          <mxGeometry x="354" y="720" width="120" height="40" as="geometry" />
        </mxCell>
        <mxCell id="xd1aFESA6wnlgl69De3i-35" value="《包含》" style="endArrow=open;endSize=12;dashed=1;html=1;rounded=0;exitX=1;exitY=0;exitDx=0;exitDy=0;entryX=0;entryY=0.5;entryDx=0;entryDy=0;strokeColor=default;strokeWidth=2;" parent="1" source="xd1aFESA6wnlgl69De3i-6" target="xd1aFESA6wnlgl69De3i-12" edge="1">
          <mxGeometry width="160" relative="1" as="geometry">
            <mxPoint x="330" y="580" as="sourcePoint" />
            <mxPoint x="490" y="580" as="targetPoint" />
          </mxGeometry>
        </mxCell>
        <mxCell id="xd1aFESA6wnlgl69De3i-36" value="《扩展》" style="endArrow=open;endSize=12;dashed=1;html=1;rounded=0;exitX=0;exitY=0.5;exitDx=0;exitDy=0;entryX=1;entryY=1;entryDx=0;entryDy=0;strokeColor=default;strokeWidth=2;" parent="1" source="xd1aFESA6wnlgl69De3i-15" target="xd1aFESA6wnlgl69De3i-6" edge="1">
          <mxGeometry width="160" relative="1" as="geometry">
            <mxPoint x="262" y="566" as="sourcePoint" />
            <mxPoint x="370" y="500" as="targetPoint" />
          </mxGeometry>
        </mxCell>
        <mxCell id="xd1aFESA6wnlgl69De3i-38" value="《扩展》" style="endArrow=open;endSize=12;dashed=1;html=1;rounded=0;exitX=0;exitY=0.5;exitDx=0;exitDy=0;entryX=1;entryY=1;entryDx=0;entryDy=0;strokeColor=default;strokeWidth=2;" parent="1" source="xd1aFESA6wnlgl69De3i-14" target="xd1aFESA6wnlgl69De3i-6" edge="1">
          <mxGeometry width="160" relative="1" as="geometry">
            <mxPoint x="282" y="586" as="sourcePoint" />
            <mxPoint x="390" y="520" as="targetPoint" />
          </mxGeometry>
        </mxCell>
        <mxCell id="xd1aFESA6wnlgl69De3i-39" value="《包含》" style="endArrow=open;endSize=12;dashed=1;html=1;rounded=0;exitX=1;exitY=0.5;exitDx=0;exitDy=0;entryX=0;entryY=0.5;entryDx=0;entryDy=0;strokeColor=default;strokeWidth=2;" parent="1" source="xd1aFESA6wnlgl69De3i-6" target="xd1aFESA6wnlgl69De3i-11" edge="1">
          <mxGeometry width="160" relative="1" as="geometry">
            <mxPoint x="292" y="596" as="sourcePoint" />
            <mxPoint x="400" y="530" as="targetPoint" />
          </mxGeometry>
        </mxCell>
        <mxCell id="xd1aFESA6wnlgl69De3i-41" value="选择分类" style="ellipse;whiteSpace=wrap;html=1;strokeColor=default;strokeWidth=2;" parent="1" vertex="1">
          <mxGeometry x="360" y="340" width="120" height="40" as="geometry" />
        </mxCell>
        <mxCell id="xd1aFESA6wnlgl69De3i-42" value="选择标签" style="ellipse;whiteSpace=wrap;html=1;strokeColor=default;strokeWidth=2;" parent="1" vertex="1">
          <mxGeometry x="360" y="120" width="120" height="40" as="geometry" />
        </mxCell>
        <mxCell id="xd1aFESA6wnlgl69De3i-43" value="《包含》" style="endArrow=open;endSize=12;dashed=1;html=1;rounded=0;exitX=1;exitY=0.5;exitDx=0;exitDy=0;entryX=0;entryY=0.5;entryDx=0;entryDy=0;strokeColor=default;strokeWidth=2;" parent="1" source="xd1aFESA6wnlgl69De3i-4" target="xd1aFESA6wnlgl69De3i-42" edge="1">
          <mxGeometry width="160" relative="1" as="geometry">
            <mxPoint x="262" y="366" as="sourcePoint" />
            <mxPoint x="436" y="290" as="targetPoint" />
          </mxGeometry>
        </mxCell>
        <mxCell id="xd1aFESA6wnlgl69De3i-44" value="《包含》" style="endArrow=open;endSize=12;dashed=1;html=1;rounded=0;exitX=1;exitY=0.5;exitDx=0;exitDy=0;entryX=0;entryY=0.5;entryDx=0;entryDy=0;strokeColor=default;strokeWidth=2;" parent="1" source="xd1aFESA6wnlgl69De3i-5" target="xd1aFESA6wnlgl69De3i-41" edge="1">
          <mxGeometry width="160" relative="1" as="geometry">
            <mxPoint x="272" y="486" as="sourcePoint" />
            <mxPoint x="446" y="410" as="targetPoint" />
          </mxGeometry>
        </mxCell>
        <mxCell id="4tCZCByajTdVZ7RZTSJh-1" value="" style="endArrow=open;endSize=12;dashed=1;html=1;rounded=0;exitX=0;exitY=0.5;exitDx=0;exitDy=0;entryX=1;entryY=1;entryDx=0;entryDy=0;strokeColor=default;strokeWidth=2;" edge="1" parent="1" source="xd1aFESA6wnlgl69De3i-16" target="xd1aFESA6wnlgl69De3i-6">
          <mxGeometry width="160" relative="1" as="geometry">
            <mxPoint x="370" y="690" as="sourcePoint" />
            <mxPoint x="261" y="585" as="targetPoint" />
          </mxGeometry>
        </mxCell>
        <mxCell id="4tCZCByajTdVZ7RZTSJh-2" value="《扩展》" style="edgeLabel;html=1;align=center;verticalAlign=middle;resizable=0;points=[];" vertex="1" connectable="0" parent="4tCZCByajTdVZ7RZTSJh-1">
          <mxGeometry x="-0.1" y="-1" relative="1" as="geometry">
            <mxPoint as="offset" />
          </mxGeometry>
        </mxCell>
        <mxCell id="xd1aFESA6wnlgl69De3i-15" value="评论" style="ellipse;whiteSpace=wrap;html=1;strokeColor=default;strokeWidth=2;" parent="1" vertex="1">
          <mxGeometry x="354" y="670" width="120" height="40" as="geometry" />
        </mxCell>
      </root>
    </mxGraphModel>
  </diagram>
</mxfile>
